<svg version="1.1" id="Layer_1" xmlns="http://www.w3.org/2000/svg" xmlns:xlink="http://www.w3.org/1999/xlink" x="0px" y="0px"
	 width="100%" viewBox="0 0 260 260" enable-background="new 0 0 260 260" xml:space="preserve">
<path fill="#040404" opacity="1.000000" stroke="none" 
	d="
M110.000000,261.000000 
	C73.682976,261.000000 37.365948,261.000000 1.024461,261.000000 
	C1.024461,174.388550 1.024461,87.777077 1.024461,1.082808 
	C87.572487,1.082808 174.145081,1.082808 260.858826,1.082808 
	C260.858826,87.666512 260.858826,174.333221 260.858826,261.000000 
	C232.578598,261.000000 204.257950,261.000000 175.365402,260.646057 
	C165.759674,257.079071 156.465454,256.130005 147.025909,257.645325 
	C135.292648,259.528870 125.783989,255.593552 118.305969,246.773804 
	C116.833839,245.037521 116.013237,241.650879 116.669395,239.591644 
	C117.111359,238.204620 120.650627,237.208725 122.851082,237.112976 
	C126.437897,236.956894 130.123611,237.379623 133.658661,238.095795 
	C140.139267,239.408752 146.515381,241.230011 152.981598,242.623398 
	C159.974564,244.130280 166.711609,241.067337 170.161697,234.419662 
	C149.196518,228.586197 128.356705,233.252853 107.680183,232.397858 
	C106.571411,242.833633 107.060394,252.021881 110.000000,261.000000 
M201.071136,250.143860 
	C201.071136,250.143860 201.389496,250.081055 201.558929,250.942856 
	C202.210754,251.130386 202.862564,251.317932 203.514389,251.505463 
	C203.641708,250.354477 203.769028,249.203491 203.913528,247.498520 
	C203.989624,247.143494 204.065704,246.788483 204.714432,246.393326 
	C205.095551,246.419785 205.476654,246.446259 206.202362,246.841599 
	C206.443237,246.534164 206.684128,246.226746 206.753159,245.279602 
	C205.890244,245.124435 205.027328,244.969269 204.196274,244.193268 
	C203.866684,243.750229 203.537094,243.307190 203.227722,242.758835 
	C203.227722,242.758835 203.179489,242.663071 203.312408,242.437851 
	C203.312408,242.437851 203.146469,242.235733 203.192474,241.533463 
	C202.794464,241.338455 202.396439,241.143433 201.955978,240.192764 
	C201.617401,239.207993 201.278839,238.223221 200.940262,237.238449 
	C200.008240,238.098740 199.076218,238.959030 197.716125,239.330292 
	C197.784271,240.067169 197.852402,240.804031 197.615173,241.895355 
	C197.641586,242.208740 197.721054,242.508026 197.339401,243.286255 
	C197.212097,244.203506 197.084793,245.120758 196.961044,246.701035 
	C197.583069,247.470642 198.205093,248.240250 199.043152,249.612518 
	C199.651871,249.704941 200.260574,249.797363 201.071136,250.143860 
M64.165291,21.540438 
	C64.544304,40.833694 64.923325,60.126953 65.297432,79.170456 
	C72.622864,78.481262 80.188278,77.580521 87.780197,77.090721 
	C110.399681,75.631409 131.344681,81.705780 151.600067,91.210266 
	C154.387161,92.518059 158.229187,92.514351 161.371552,91.947243 
	C169.757050,90.433876 174.107346,83.876083 177.566498,76.969574 
	C185.055115,62.017838 187.395554,45.783360 188.272827,29.325603 
	C188.676392,21.754923 188.341568,14.144885 188.341568,6.460116 
	C146.463623,6.460116 104.726418,6.460116 62.627102,6.460116 
	C63.154640,11.403848 63.646477,16.013031 64.165291,21.540438 
M67.212555,164.345840 
	C75.149498,182.021393 85.236610,198.104782 101.808762,209.013321 
	C120.214500,221.128815 140.576477,224.353210 162.555145,221.884766 
	C162.555145,216.033966 162.555145,210.649017 162.555145,205.080383 
	C161.270355,205.080383 160.273849,205.155640 159.291687,205.068710 
	C149.730682,204.222534 140.085770,203.659805 131.453659,198.783340 
	C127.068985,196.306351 124.779846,192.117798 126.340019,187.508774 
	C130.789886,174.363052 135.754532,161.383255 140.886444,148.485306 
	C141.696991,146.448135 144.427490,145.174881 146.270294,143.548416 
	C147.497131,145.757858 148.835876,147.915665 149.891617,150.204056 
	C150.274048,151.033020 150.075989,152.183929 149.978134,153.171631 
	C149.323593,159.777451 148.817337,166.406113 147.888901,172.974487 
	C146.836716,180.418365 151.420776,184.949326 159.154861,183.324249 
	C151.568008,157.945267 160.437408,132.362198 158.690567,106.904282 
	C149.210999,106.262238 145.770401,109.212006 144.963806,118.073158 
	C144.830063,119.542557 144.562195,121.102730 143.903183,122.388756 
	C143.375565,123.418396 142.160187,124.095604 141.250061,124.929230 
	C140.465530,124.004875 139.407379,123.195152 138.960800,122.129211 
	C138.295288,120.540665 138.061279,118.771324 137.439880,116.253067 
	C135.346237,117.885338 133.930679,118.938904 132.570892,120.060089 
	C130.143814,122.061310 127.896866,124.331001 125.272858,126.019531 
	C124.178215,126.723930 121.676018,126.849960 120.958923,126.117653 
	C120.096710,125.237144 119.816132,122.813728 120.431946,121.684448 
	C121.386421,119.934120 123.254128,118.645226 124.844093,117.289009 
	C126.242714,116.095978 127.791481,115.078972 129.285339,113.975830 
	C126.729279,111.189293 125.014420,111.276588 123.215813,113.855118 
	C122.296822,115.172592 120.832802,116.176064 119.468231,117.105881 
	C110.166641,123.444054 100.391266,121.675644 90.301819,119.254082 
	C78.608498,116.447563 66.740799,114.347961 54.912121,112.137764 
	C51.650558,111.528343 50.195477,113.240761 51.297581,116.552452 
	C56.519569,132.243896 61.767025,147.926865 67.212555,164.345840 
M85.890610,95.086548 
	C82.725052,96.520126 78.190704,96.193115 77.573761,101.260315 
	C86.679337,102.659348 98.392250,99.500725 100.989395,95.058693 
	C96.229431,95.058693 91.482895,95.058693 85.890610,95.086548 
M194.491638,232.150482 
	C196.228790,236.481247 199.799683,232.928894 202.371857,233.823822 
	C202.644516,233.918686 203.684402,231.808304 204.368362,230.721008 
	C204.001572,230.290359 203.634781,229.859726 203.267990,229.429077 
	C200.622864,230.285339 197.977737,231.141602 194.491638,232.150482 
z"/>
<path fill="#F2F2F2" opacity="1.000000" stroke="none" 
	d="
M110.468658,261.000000 
	C107.060394,252.021881 106.571411,242.833633 107.680183,232.397858 
	C128.356705,233.252853 149.196518,228.586197 170.161697,234.419662 
	C166.711609,241.067337 159.974564,244.130280 152.981598,242.623398 
	C146.515381,241.230011 140.139267,239.408752 133.658661,238.095795 
	C130.123611,237.379623 126.437897,236.956894 122.851082,237.112976 
	C120.650627,237.208725 117.111359,238.204620 116.669395,239.591644 
	C116.013237,241.650879 116.833839,245.037521 118.305969,246.773804 
	C125.783989,255.593552 135.292648,259.528870 147.025909,257.645325 
	C156.465454,256.130005 165.759674,257.079071 174.896744,260.646057 
	C153.645767,261.000000 132.291550,261.000000 110.468658,261.000000 
z"/>
<path fill="#FCFCFC" opacity="1.000000" stroke="none" 
	d="
M64.151802,21.081326 
	C63.646477,16.013031 63.154640,11.403848 62.627102,6.460116 
	C104.726418,6.460116 146.463623,6.460116 188.341568,6.460116 
	C188.341568,14.144885 188.676392,21.754923 188.272827,29.325603 
	C187.395554,45.783360 185.055115,62.017838 177.566498,76.969574 
	C174.107346,83.876083 169.757050,90.433876 161.371552,91.947243 
	C158.229187,92.514351 154.387161,92.518059 151.600067,91.210266 
	C131.344681,81.705780 110.399681,75.631409 87.780197,77.090721 
	C80.188278,77.580521 72.622864,78.481262 65.297432,79.170456 
	C64.923325,60.126953 64.544304,40.833694 64.151802,21.081326 
z"/>
<path fill="#FAFAFA" opacity="1.000000" stroke="none" 
	d="
M67.108978,163.979340 
	C61.767025,147.926865 56.519569,132.243896 51.297581,116.552452 
	C50.195477,113.240761 51.650558,111.528343 54.912121,112.137764 
	C66.740799,114.347961 78.608498,116.447563 90.301819,119.254082 
	C100.391266,121.675644 110.166641,123.444054 119.468231,117.105881 
	C120.832802,116.176064 122.296822,115.172592 123.215813,113.855118 
	C125.014420,111.276588 126.729279,111.189293 129.285339,113.975830 
	C127.791481,115.078972 126.242714,116.095978 124.844093,117.289009 
	C123.254128,118.645226 121.386421,119.934120 120.431946,121.684448 
	C119.816132,122.813728 120.096710,125.237144 120.958923,126.117653 
	C121.676018,126.849960 124.178215,126.723930 125.272858,126.019531 
	C127.896866,124.331001 130.143814,122.061310 132.570892,120.060089 
	C133.930679,118.938904 135.346237,117.885338 137.439880,116.253067 
	C138.061279,118.771324 138.295288,120.540665 138.960800,122.129211 
	C139.407379,123.195152 140.465530,124.004875 141.250061,124.929230 
	C142.160187,124.095604 143.375565,123.418396 143.903183,122.388756 
	C144.562195,121.102730 144.830063,119.542557 144.963806,118.073158 
	C145.770401,109.212006 149.210999,106.262238 158.690567,106.904282 
	C160.437408,132.362198 151.568008,157.945267 159.154861,183.324249 
	C151.420776,184.949326 146.836716,180.418365 147.888901,172.974487 
	C148.817337,166.406113 149.323593,159.777451 149.978134,153.171631 
	C150.075989,152.183929 150.274048,151.033020 149.891617,150.204056 
	C148.835876,147.915665 147.497131,145.757858 146.270294,143.548416 
	C144.427490,145.174881 141.696991,146.448135 140.886444,148.485306 
	C135.754532,161.383255 130.789886,174.363052 126.340019,187.508774 
	C124.779846,192.117798 127.068985,196.306351 131.453659,198.783340 
	C140.085770,203.659805 149.730682,204.222534 159.291687,205.068710 
	C160.273849,205.155640 161.270355,205.080383 162.555145,205.080383 
	C162.555145,210.649017 162.555145,216.033966 162.555145,221.884766 
	C140.576477,224.353210 120.214500,221.128815 101.808762,209.013321 
	C85.236610,198.104782 75.149498,182.021393 67.108978,163.979340 
z"/>
<path fill="#E8E7E8" opacity="1.000000" stroke="none" 
	d="
M86.313492,95.072617 
	C91.482895,95.058693 96.229431,95.058693 100.989395,95.058693 
	C98.392250,99.500725 86.679337,102.659348 77.573761,101.260315 
	C78.190704,96.193115 82.725052,96.520126 86.313492,95.072617 
z"/>
<path fill="#B0ADAE" opacity="1.000000" stroke="none" 
	d="
M194.912125,232.074173 
	C197.977737,231.141602 200.622864,230.285339 203.267990,229.429077 
	C203.634781,229.859726 204.001572,230.290359 204.368362,230.721008 
	C203.684402,231.808304 202.644516,233.918686 202.371857,233.823822 
	C199.799683,232.928894 196.228790,236.481247 194.912125,232.074173 
z"/>
<path fill="#5D5958" opacity="1.000000" stroke="none" 
	d="
M198.144211,239.819321 
	C199.076218,238.959030 200.008240,238.098740 200.940262,237.238449 
	C201.278839,238.223221 201.617401,239.207993 202.008072,240.901291 
	C202.422272,241.818451 202.784378,242.027084 203.146469,242.235733 
	C203.146469,242.235733 203.312408,242.437851 202.801514,242.560501 
	C200.811615,242.719833 199.332581,242.756516 197.853561,242.793213 
	C197.721054,242.508026 197.641586,242.208740 197.841064,241.289902 
	C198.092697,240.396057 198.118454,240.107681 198.144211,239.819321 
z"/>
<path fill="#696262" opacity="1.000000" stroke="none" 
	d="
M204.141800,246.433456 
	C204.065704,246.788483 203.989624,247.143494 203.582642,247.774719 
	C202.822220,248.043381 202.392670,248.035858 201.624115,247.977753 
	C200.465759,248.288055 199.646439,248.648956 198.827118,249.009857 
	C198.205093,248.240250 197.583069,247.470642 197.237656,246.366837 
	C197.696320,245.996552 197.878387,245.960480 198.497101,245.963684 
	C200.669769,246.146469 202.405777,246.289963 204.141800,246.433456 
z"/>
<path fill="#B5B2B1" opacity="1.000000" stroke="none" 
	d="
M198.060440,245.924408 
	C197.878387,245.960480 197.696320,245.996552 197.235870,246.035324 
	C197.084793,245.120758 197.212097,244.203506 197.596481,243.039734 
	C199.332581,242.756516 200.811615,242.719833 202.735062,242.673111 
	C203.179489,242.663071 203.227722,242.758835 203.037323,243.056686 
	C202.525787,243.599915 202.204651,243.845306 201.542175,244.089020 
	C200.491241,244.378128 199.781662,244.668900 198.861404,245.081985 
	C198.310013,245.326370 198.113251,245.566406 198.060440,245.924408 
z"/>
<path fill="#E8E7E5" opacity="1.000000" stroke="none" 
	d="
M198.497101,245.963684 
	C198.113251,245.566406 198.310013,245.326370 199.218475,245.097153 
	C200.499710,244.966309 201.213196,244.942612 202.299683,244.970551 
	C203.169937,244.952835 203.667175,244.883469 204.164413,244.814087 
	C205.027328,244.969269 205.890244,245.124435 206.544128,245.683563 
	C206.175995,246.215912 206.016876,246.344330 205.857773,246.472733 
	C205.476654,246.446259 205.095551,246.419785 204.428116,246.413391 
	C202.405777,246.289963 200.669769,246.146469 198.497101,245.963684 
z"/>
<path fill="#948C8D" opacity="1.000000" stroke="none" 
	d="
M201.963135,248.028351 
	C202.392670,248.035858 202.822220,248.043381 203.574051,248.051697 
	C203.769028,249.203491 203.641708,250.354477 203.514389,251.505463 
	C202.862564,251.317932 202.210754,251.130386 201.739517,250.443420 
	C201.910828,249.569626 201.901550,249.195297 201.915451,248.623291 
	C201.938629,248.425629 201.963135,248.028351 201.963135,248.028351 
z"/>
<path fill="#D7D4D4" opacity="1.000000" stroke="none" 
	d="
M201.624115,247.977753 
	C201.963135,248.028351 201.938629,248.425629 201.661774,248.714203 
	C201.213043,249.298447 201.041168,249.594116 200.869293,249.889786 
	C200.260574,249.797363 199.651871,249.704941 198.935135,249.311188 
	C199.646439,248.648956 200.465759,248.288055 201.624115,247.977753 
z"/>
<path fill="#837E7F" opacity="1.000000" stroke="none" 
	d="
M204.180344,244.503693 
	C203.667175,244.883469 203.169937,244.952835 202.357407,244.759933 
	C202.042114,244.497665 201.883514,244.090683 201.883514,244.090698 
	C202.204651,243.845306 202.525787,243.599915 203.027222,243.109344 
	C203.537094,243.307190 203.866684,243.750229 204.180344,244.503693 
z"/>
<path fill="#837E7F" opacity="1.000000" stroke="none" 
	d="
M197.930176,239.574799 
	C198.118454,240.107681 198.092697,240.396057 197.993744,241.112671 
	C197.852402,240.804031 197.784271,240.067169 197.930176,239.574799 
z"/>
<path fill="#473F3F" opacity="1.000000" stroke="none" 
	d="
M200.970215,250.016815 
	C201.041168,249.594116 201.213043,249.298447 201.638611,248.911865 
	C201.901550,249.195297 201.910828,249.569626 201.654800,250.012512 
	C201.389496,250.081055 201.071136,250.143860 200.970215,250.016815 
z"/>
<path fill="#B5B2B1" opacity="1.000000" stroke="none" 
	d="
M203.169464,241.884598 
	C202.784378,242.027084 202.422272,241.818451 202.029297,241.279114 
	C202.396439,241.143433 202.794464,241.338455 203.169464,241.884598 
z"/>
<path fill="#696262" opacity="1.000000" stroke="none" 
	d="
M206.030060,246.657166 
	C206.016876,246.344330 206.175995,246.215912 206.630051,246.003418 
	C206.684128,246.226746 206.443237,246.534164 206.030060,246.657166 
z"/>
<path fill="#110406" opacity="1.000000" stroke="none" 
	d="
M201.542175,244.089020 
	C201.883514,244.090683 202.042114,244.497665 201.984390,244.708282 
	C201.213196,244.942612 200.499710,244.966309 199.429169,244.974838 
	C199.781662,244.668900 200.491241,244.378128 201.542175,244.089020 
z"/>
</svg>